# xmcd
#
# Track frame offsets: 
#        150
#        12484
#        24376
#        37160
#        52195
#        65453
#        79378
#        91429
#        105944
#        120244
#        126336
#        141152
#        154923
#        169468
#        181111
#        193518
#        205861
#        217581
#        229496
#        242144
#        253089
#        266990
#        280999
#        295366
#        305374
#
# Disc length: 4245 seconds
#
# Revision: 3
# Processed by: cddbd v1.5.2PL0 Copyright (c) Steve Scherf et al.
# Submitted via: ExactAudioCopy v1.0b3
#
DISCID=78109319
DTITLE=Various Artist - Music Inspired By Oh! Brother, Where Art Thou? [Disc 
DTITLE=1]
DYEAR=2007
DGENRE=Bluegrass
TTITLE0=Rice Brothers Gang, The - You Are My Sunshine
TTITLE1=Ives, Burl - Big Rock Candy Mountain
TTITLE2=Carter Family, The - Keep On The Sunny Side
TTITLE3=Arthur, Emry - I Am A Man Of Constant Sorrow
TTITLE4=Uncle Dave Macon - Sail Away Ladies
TTITLE5=Fiddlin' John Carson and Moonshine Kate - When The Saints Go M
TTITLE5=arching In
TTITLE6=Pucket, Riley - Red Wing
TTITLE7=Dalhart, Vernon - The Runaway Train
TTITLE8=Carter Family, The - Wildwood Flower
TTITLE9=Blue Sky Boys, The with Curly Parker - Ida Red
TTITLE10=Alabama Barnstormers, The - Little Bessie
TTITLE11=Carter Family, The - I'm Thinking Tonight Of My Blue Eyes
TTITLE12=Uncle Dave Macon - Backwater Blues
TTITLE13=Leadbelly - Rock Island Line
TTITLE14=Guthrie, Woody and Cisco Houston - John Henry
TTITLE15=Monroe, Bill And His Bluegrass Boys - Mule Skinner's Blues
TTITLE16=Delmore Brothers, The - Brown's Ferry Blues
TTITLE17=Blue Sky Boys, The - Why Should It End This Way?
TTITLE18=Acuff, Ray - Wabash Cannonball
TTITLE19=Alley Boys Of Abbeville, The - Abbeville Breakdown
TTITLE20=Rodgers, Jimmie - My Little Lady
TTITLE21=Uncle Dave Macon - I'm Goin' Away In The Morn
TTITLE22=Shepherd, Hayes - Hard For To Love
TTITLE23=Gevedon, Monroe And Family - Two Italians...Red Bird
TTITLE24=Acuff, Roy - Great Speckled Bird
EXTD=
EXTT0=
EXTT1=
EXTT2=
EXTT3=
EXTT4=
EXTT5=
EXTT6=
EXTT7=
EXTT8=
EXTT9=
EXTT10=
EXTT11=
EXTT12=
EXTT13=
EXTT14=
EXTT15=
EXTT16=
EXTT17=
EXTT18=
EXTT19=
EXTT20=
EXTT21=
EXTT22=
EXTT23=
EXTT24=
PLAYORDER=
